<svg width="330" height="60" viewBox="0 0 330 60" fill="none" xmlns="http://www.w3.org/2000/svg">
<path d="M83.8594 33.8789H96.0938V38.625H76.1602V35.373L88.3594 17.7949H76.0898V13.0312H95.9707V16.1953L83.8594 33.8789ZM107.449 38.9766C104.531 38.9766 102.17 38.1094 100.365 36.375C98.5605 34.6289 97.6582 32.3613 97.6582 29.5723V29.0801C97.6582 27.1348 98.0156 25.418 98.7305 23.9297C99.457 22.4414 100.512 21.293 101.895 20.4844C103.277 19.6641 104.918 19.2539 106.816 19.2539C109.488 19.2539 111.598 20.0859 113.145 21.75C114.691 23.4023 115.465 25.7109 115.465 28.6758V30.9785H103.688C103.898 32.0449 104.361 32.8828 105.076 33.4922C105.791 34.1016 106.717 34.4062 107.854 34.4062C109.729 34.4062 111.193 33.75 112.248 32.4375L114.955 35.6367C114.217 36.6562 113.168 37.4707 111.809 38.0801C110.461 38.6777 109.008 38.9766 107.449 38.9766ZM106.781 23.8242C105.047 23.8242 104.016 24.9727 103.688 27.2695H109.664V26.8125C109.688 25.8633 109.447 25.1309 108.943 24.6152C108.439 24.0879 107.719 23.8242 106.781 23.8242ZM123.305 19.6055L123.498 21.8379C124.811 20.1152 126.621 19.2539 128.93 19.2539C130.91 19.2539 132.387 19.8457 133.359 21.0293C134.344 22.2129 134.854 23.9941 134.889 26.373V38.625H128.947V26.6191C128.947 25.6582 128.754 24.9551 128.367 24.5098C127.98 24.0527 127.277 23.8242 126.258 23.8242C125.098 23.8242 124.236 24.2812 123.674 25.1953V38.625H117.75V19.6055H123.305ZM148.143 33.2812C148.143 32.7773 147.879 32.373 147.352 32.0684C146.824 31.7637 145.822 31.4473 144.346 31.1191C142.869 30.791 141.65 30.3633 140.689 29.8359C139.729 29.2969 138.996 28.6465 138.492 27.8848C137.988 27.123 137.736 26.25 137.736 25.2656C137.736 23.5195 138.457 22.084 139.898 20.959C141.34 19.8223 143.227 19.2539 145.559 19.2539C148.066 19.2539 150.082 19.8223 151.605 20.959C153.129 22.0957 153.891 23.5898 153.891 25.4414H147.949C147.949 23.918 147.146 23.1562 145.541 23.1562C144.92 23.1562 144.398 23.332 143.977 23.6836C143.555 24.0234 143.344 24.4512 143.344 24.9668C143.344 25.4941 143.602 25.9219 144.117 26.25C144.633 26.5781 145.453 26.8477 146.578 27.0586C147.715 27.2695 148.711 27.5215 149.566 27.8145C152.426 28.7988 153.855 30.5625 153.855 33.1055C153.855 34.8398 153.082 36.252 151.535 37.3418C150 38.4316 148.008 38.9766 145.559 38.9766C143.93 38.9766 142.477 38.6836 141.199 38.0977C139.922 37.5117 138.926 36.7148 138.211 35.707C137.496 34.6992 137.139 33.6387 137.139 32.5254H142.676C142.699 33.4043 142.992 34.0488 143.555 34.459C144.117 34.8574 144.838 35.0566 145.717 35.0566C146.525 35.0566 147.129 34.8926 147.527 34.5645C147.938 34.2363 148.143 33.8086 148.143 33.2812ZM162.434 21.6445C163.699 20.0508 165.316 19.2539 167.285 19.2539C169.383 19.2539 170.965 19.875 172.031 21.1172C173.098 22.3594 173.643 24.1934 173.666 26.6191V38.625H167.725V26.7598C167.725 25.752 167.52 25.0137 167.109 24.5449C166.699 24.0645 166.002 23.8242 165.018 23.8242C163.799 23.8242 162.938 24.2109 162.434 24.9844V38.625H156.51V11.625H162.434V21.6445ZM176.215 28.9395C176.215 27.041 176.584 25.3535 177.322 23.877C178.061 22.3887 179.121 21.2461 180.504 20.4492C181.887 19.6523 183.51 19.2539 185.373 19.2539C188.221 19.2539 190.465 20.1387 192.105 21.9082C193.746 23.666 194.566 26.0625 194.566 29.0977V29.3086C194.566 32.2734 193.74 34.6289 192.088 36.375C190.447 38.1094 188.221 38.9766 185.408 38.9766C182.701 38.9766 180.527 38.168 178.887 36.5508C177.246 34.9219 176.361 32.7188 176.232 29.9414L176.215 28.9395ZM182.139 29.3086C182.139 31.0664 182.414 32.3555 182.965 33.1758C183.516 33.9961 184.33 34.4062 185.408 34.4062C187.518 34.4062 188.596 32.7832 188.643 29.5371V28.9395C188.643 25.5293 187.553 23.8242 185.373 23.8242C183.393 23.8242 182.32 25.2949 182.156 28.2363L182.139 29.3086ZM212.584 33.8789H223.324V38.625H206.414V13.0312H212.584V33.8789ZM231.902 38.625H225.961V19.6055H231.902V38.625ZM225.609 14.7012C225.609 13.8574 225.914 13.166 226.523 12.627C227.133 12.0879 227.924 11.8184 228.896 11.8184C229.869 11.8184 230.66 12.0879 231.27 12.627C231.879 13.166 232.184 13.8574 232.184 14.7012C232.184 15.5449 231.879 16.2363 231.27 16.7754C230.66 17.3145 229.869 17.584 228.896 17.584C227.924 17.584 227.133 17.3145 226.523 16.7754C225.914 16.2363 225.609 15.5449 225.609 14.7012ZM253.225 29.2734C253.225 32.3906 252.58 34.7871 251.291 36.4629C250.002 38.1387 248.186 38.9766 245.842 38.9766C243.908 38.9766 242.35 38.209 241.166 36.6738L240.92 38.625H235.611V11.625H241.535V21.1348C242.637 19.8809 244.061 19.2539 245.807 19.2539C248.174 19.2539 250.002 20.1035 251.291 21.8027C252.58 23.502 253.225 25.8926 253.225 28.9746V29.2734ZM247.283 28.9043C247.283 27.0762 247.037 25.7754 246.545 25.002C246.064 24.2168 245.32 23.8242 244.312 23.8242C242.977 23.8242 242.051 24.334 241.535 25.3535V32.9121C242.039 33.9199 242.977 34.4238 244.348 34.4238C245.742 34.4238 246.627 33.7441 247.002 32.3848C247.189 31.7168 247.283 30.5566 247.283 28.9043ZM267.357 24.9668L265.406 24.8262C263.543 24.8262 262.348 25.4121 261.82 26.584V38.625H255.896V19.6055H261.451L261.645 22.0488C262.641 20.1855 264.029 19.2539 265.811 19.2539C266.443 19.2539 266.994 19.3242 267.463 19.4648L267.357 24.9668ZM279.68 38.625C279.469 38.2383 279.281 37.6699 279.117 36.9199C278.027 38.291 276.504 38.9766 274.547 38.9766C272.754 38.9766 271.23 38.4375 269.977 37.3594C268.723 36.2695 268.096 34.9043 268.096 33.2637C268.096 31.2012 268.857 29.6426 270.381 28.5879C271.904 27.5332 274.119 27.0059 277.025 27.0059H278.854V26.0039C278.854 24.2578 278.098 23.3848 276.586 23.3848C275.18 23.3848 274.477 24.0762 274.477 25.459H268.553C268.553 23.6191 269.332 22.125 270.891 20.9766C272.461 19.8281 274.459 19.2539 276.885 19.2539C279.311 19.2539 281.227 19.8457 282.633 21.0293C284.039 22.2129 284.76 23.8359 284.795 25.8984V34.3184C284.818 36.0645 285.088 37.4004 285.604 38.3262V38.625H279.68ZM275.971 34.7578C276.709 34.7578 277.318 34.5996 277.799 34.2832C278.291 33.9668 278.643 33.6094 278.854 33.2109V30.1699H277.131C275.068 30.1699 274.037 31.0957 274.037 32.9473C274.037 33.4863 274.219 33.9258 274.582 34.2656C274.945 34.5938 275.408 34.7578 275.971 34.7578ZM299.596 24.9668L297.645 24.8262C295.781 24.8262 294.586 25.4121 294.059 26.584V38.625H288.135V19.6055H293.689L293.883 22.0488C294.879 20.1855 296.268 19.2539 298.049 19.2539C298.682 19.2539 299.232 19.3242 299.701 19.4648L299.596 24.9668ZM309.65 30.3281L312.814 19.6055H319.16L311.408 41.8066L311.074 42.6152C309.973 45.0762 308.027 46.3066 305.238 46.3066C304.465 46.3066 303.65 46.1895 302.795 45.9551V41.7188H303.568C304.4 41.7188 305.033 41.5957 305.467 41.3496C305.912 41.1152 306.24 40.6875 306.451 40.0664L306.926 38.8008L300.316 19.6055H306.645L309.65 30.3281Z" fill="url(#paint0_linear_166_66)"/>
<path d="M12.5001 19.9999C15.1523 19.9999 17.6958 21.0535 19.5712 22.9289C21.4466 24.8042 22.5001 27.3478 22.5001 29.9999C22.5001 32.6521 21.4466 35.1956 19.5712 37.071C17.6958 38.9464 15.1523 39.9999 12.5001 39.9999C9.84797 39.9999 7.30443 38.9464 5.42907 37.071C3.55371 35.1956 2.50014 32.6521 2.50014 29.9999C2.50014 27.3478 3.55371 24.8042 5.42907 22.9289C7.30443 21.0535 9.84797 19.9999 12.5001 19.9999V19.9999ZM30.0001 2.49993C32.6523 2.49993 35.1958 3.5535 37.0712 5.42886C38.9466 7.30422 40.0001 9.84776 40.0001 12.4999C40.0001 15.1521 38.9466 17.6956 37.0712 19.571C35.1958 21.4464 32.6523 22.4999 30.0001 22.4999C27.348 22.4999 24.8044 21.4464 22.9291 19.571C21.0537 17.6956 20.0001 15.1521 20.0001 12.4999C20.0001 9.84776 21.0537 7.30422 22.9291 5.42886C24.8044 3.5535 27.348 2.49993 30.0001 2.49993V2.49993ZM30.0001 37.4999C32.6523 37.4999 35.1958 38.5535 37.0712 40.4289C38.9466 42.3042 40.0001 44.8478 40.0001 47.4999C40.0001 50.1521 38.9466 52.6956 37.0712 54.571C35.1958 56.4464 32.6523 57.4999 30.0001 57.4999C27.348 57.4999 24.8044 56.4464 22.9291 54.571C21.0537 52.6956 20.0001 50.1521 20.0001 47.4999C20.0001 44.8478 21.0537 42.3042 22.9291 40.4289C24.8044 38.5535 27.348 37.4999 30.0001 37.4999V37.4999ZM47.5001 19.9999C50.1523 19.9999 52.6958 21.0535 54.5712 22.9289C56.4466 24.8042 57.5001 27.3478 57.5001 29.9999C57.5001 32.6521 56.4466 35.1956 54.5712 37.071C52.6958 38.9464 50.1523 39.9999 47.5001 39.9999C44.848 39.9999 42.3044 38.9464 40.4291 37.071C38.5537 35.1956 37.5001 32.6521 37.5001 29.9999C37.5001 27.3478 38.5537 24.8042 40.4291 22.9289C42.3044 21.0535 44.848 19.9999 47.5001 19.9999Z" fill="url(#paint1_linear_166_66)"/>
<defs>
<linearGradient id="paint0_linear_166_66" x1="75" y1="26.4919" x2="330" y2="26.492" gradientUnits="userSpaceOnUse">
<stop stop-color="#0061FD" stop-opacity="0.8"/>
<stop offset="1" stop-color="#BCD6FF"/>
</linearGradient>
<linearGradient id="paint1_linear_166_66" x1="30.0001" y1="2.49993" x2="30.0001" y2="57.4999" gradientUnits="userSpaceOnUse">
<stop stop-color="#125CCF"/>
<stop offset="0.9375" stop-color="#01C7FC"/>
<stop offset="1" stop-color="#74A7FF"/>
</linearGradient>
</defs>
</svg>
