<svg width="24" height="24" viewBox="0 0 24 24" fill="none" xmlns="http://www.w3.org/2000/svg">
<path d="M15.6128 18.0735C15.6919 18.1859 15.7386 18.3178 15.7479 18.4548C15.7571 18.5919 15.7286 18.7289 15.6653 18.8508C15.602 18.9728 15.5064 19.075 15.389 19.1463C15.2716 19.2176 15.1369 19.2554 14.9995 19.2553L1.49912 19.2559C1.36173 19.2559 1.22699 19.2182 1.10958 19.1469C0.992169 19.0755 0.896609 18.9733 0.833328 18.8514C0.770046 18.7294 0.741473 18.5925 0.750727 18.4554C0.759981 18.3183 0.806707 18.1864 0.885804 18.0741C1.93908 16.5795 3.42167 15.4404 5.13709 14.8076C4.13079 14.1391 3.36644 13.1645 2.95713 12.0279C2.54783 10.8913 2.51533 9.65306 2.86444 8.49654C3.21355 7.34001 3.92573 6.32661 4.89557 5.60631C5.86541 4.886 7.04138 4.49707 8.24944 4.49707C9.45751 4.49707 10.6335 4.886 11.6033 5.60631C12.5732 6.32661 13.2853 7.34001 13.6344 8.49654C13.9836 9.65306 13.9511 10.8913 13.5418 12.0279C13.1325 13.1645 12.3681 14.1391 11.3618 14.8076C13.077 15.4403 14.5595 16.5793 15.6127 18.0735H15.6128ZM23.2555 18.0735C22.2022 16.5792 20.7197 15.4403 19.0045 14.8076C20.1199 14.0653 20.9337 12.9493 21.2995 11.6604C21.6652 10.3715 21.559 8.99443 20.9998 7.77693C20.4406 6.55944 19.4652 5.58151 18.2491 5.01918C17.0331 4.45684 15.6562 4.34701 14.3664 4.70947C14.2493 4.74241 14.142 4.80333 14.0537 4.88699C13.9654 4.97064 13.8988 5.07451 13.8595 5.18965C13.8203 5.30479 13.8097 5.42774 13.8286 5.5479C13.8475 5.66806 13.8953 5.78182 13.968 5.87938C14.8158 7.01826 15.3031 8.3849 15.3673 9.80325C15.4315 11.2216 15.0695 12.6267 14.328 13.8374C14.23 13.9971 14.1954 14.1877 14.2309 14.3716C14.2664 14.5555 14.3694 14.7195 14.5197 14.8313C14.804 15.0429 15.0776 15.2687 15.3393 15.5077C15.3529 15.5224 15.3665 15.537 15.3815 15.5508C16.3825 16.4762 17.1938 17.5877 17.7701 18.8232C17.8305 18.9525 17.9265 19.0619 18.0469 19.1385C18.1673 19.2151 18.3071 19.2558 18.4498 19.2558L22.6423 19.2553C22.7796 19.2553 22.9144 19.2176 23.0317 19.1462C23.1491 19.0749 23.2447 18.9727 23.3079 18.8507C23.3712 18.7288 23.3997 18.5918 23.3905 18.4548C23.3812 18.3177 23.3345 18.1858 23.2554 18.0735H23.2555Z" fill="#EBEBF5" fill-opacity="0.6"/>
</svg>
